<svg width="111" height="61" viewBox="0 0 111 61" fill="none" xmlns="http://www.w3.org/2000/svg">
<path fill-rule="evenodd" clip-rule="evenodd" d="M35.6667 60.25V50.3333H10.875V10.6667H40.625V0.75H10.875C5.39817 0.75 0.958328 5.18984 0.958328 10.6667V50.3333C0.958328 55.8102 5.39817 60.25 10.875 60.25H35.6667ZM65.4167 0.75V10.6667H90.2083V50.3333H60.4583V60.25H90.2083C95.6852 60.25 100.125 55.8102 100.125 50.3333V45.375C105.602 45.375 110.042 40.9352 110.042 35.4583V25.5417C110.042 20.0648 105.602 15.625 100.125 15.625V10.6667C100.125 5.18984 95.6852 0.75 90.2083 0.75H65.4167ZM50.5417 25.5417H70.375L45.5833 60.25L50.5417 35.4583H30.7083L55.5 0.75L50.5417 25.5417Z" fill="#343434"/>
</svg>
