<svg width="111" height="91" viewBox="0 0 111 91" fill="none" xmlns="http://www.w3.org/2000/svg">
<path fill-rule="evenodd" clip-rule="evenodd" d="M30.3961 14.9833C30.7474 14.495 31.1375 13.8971 31.635 13.0909C31.8167 12.7965 32.3121 11.9793 32.6811 11.3705L32.6816 11.3696L32.682 11.3689C32.8788 11.0443 33.0395 10.7792 33.0973 10.6846C37.2077 3.961 40.1956 0.875 45.5833 0.875H65.4167C70.8044 0.875 73.7924 3.961 77.9027 10.6846C77.9601 10.7785 78.1188 11.0402 78.3135 11.3614L78.3183 11.3694L78.3194 11.3712C78.6883 11.9799 79.1834 12.7966 79.365 13.0909C79.8625 13.8971 80.2527 14.495 80.604 14.9833C80.8356 15.3054 81.038 15.5613 81.203 15.75H95.1667C103.382 15.75 110.042 22.4098 110.042 30.625V75.25C110.042 83.4652 103.382 90.125 95.1667 90.125H15.8333C7.61811 90.125 0.958344 83.4652 0.958344 75.25V30.625C0.958344 22.4098 7.61811 15.75 15.8333 15.75H29.797C29.9621 15.5613 30.1644 15.3054 30.3961 14.9833ZM15.8333 25.6667C13.0949 25.6667 10.875 27.8866 10.875 30.625V75.25C10.875 77.9884 13.0949 80.2083 15.8333 80.2083H95.1667C97.9051 80.2083 100.125 77.9884 100.125 75.25V30.625C100.125 27.8866 97.9051 25.6667 95.1667 25.6667H80.2917C76.9977 25.6667 74.7762 23.8639 72.5536 20.7741C72.0423 20.0631 71.5357 19.2869 70.926 18.299C70.7171 17.9605 70.1745 17.0653 69.8024 16.4513C69.6262 16.1605 69.4881 15.9327 69.4419 15.857C67.1992 12.1885 65.8467 10.7917 65.4167 10.7917H45.5833C45.1533 10.7917 43.8008 12.1885 41.5582 15.857C41.5119 15.9327 41.3741 16.1601 41.1981 16.4505L41.1974 16.4517C40.8252 17.0657 40.2829 17.9606 40.074 18.299C39.4644 19.2869 38.9578 20.0631 38.4464 20.7741C36.2238 23.8639 34.0024 25.6667 30.7083 25.6667H15.8333ZM95.1667 35.5833C95.1667 38.3217 92.9468 40.5417 90.2083 40.5417C87.4699 40.5417 85.25 38.3217 85.25 35.5833C85.25 32.8449 87.4699 30.625 90.2083 30.625C92.9468 30.625 95.1667 32.8449 95.1667 35.5833ZM30.7083 50.4583C30.7083 64.1504 41.8079 75.25 55.5 75.25C69.1921 75.25 80.2917 64.1504 80.2917 50.4583C80.2917 36.7663 69.1921 25.6667 55.5 25.6667C41.8079 25.6667 30.7083 36.7663 30.7083 50.4583ZM70.375 50.4583C70.375 58.6736 63.7152 65.3333 55.5 65.3333C47.2848 65.3333 40.625 58.6736 40.625 50.4583C40.625 42.2431 47.2848 35.5833 55.5 35.5833C63.7152 35.5833 70.375 42.2431 70.375 50.4583Z" fill="#343434"/>
</svg>
