<svg width="82" height="100" viewBox="0 0 82 100" fill="none" xmlns="http://www.w3.org/2000/svg">
<path fill-rule="evenodd" clip-rule="evenodd" d="M0.5 63.5C0.5 75.4718 14 87.4718 41 99.5C68 87.5 81.5 75.5 81.5 63.5C81.5 61.7837 81.5077 58.1155 81.5172 53.5775V53.577V53.5766V53.5763V53.5761V53.5707C81.5451 40.2614 81.5887 19.4774 81.5 18.5C81.5 15.0458 80.1743 14.2431 76.5053 12.0213C75.3944 11.3486 74.0688 10.5458 72.5 9.5C65.75 5 54.4786 0.5 41 0.5C25.5344 0.5 10.2281 9.01462 9.5 9.5C7.9313 10.5458 6.60565 11.3486 5.4948 12.0212L5.49469 12.0213L5.49467 12.0213C1.82569 14.2431 0.5 15.0458 0.5 18.5V63.5ZM72.5083 57.8961C72.5027 60.7271 72.5 62.4636 72.5 63.5C72.5 70.3141 62.4747 79.5818 41.0042 89.609C19.531 79.5593 9.5 70.288 9.5 63.5V20.135L10.075 19.7782L10.0751 19.7781C11.5302 18.8754 13.4269 17.6987 14.4923 16.9885C18.6289 14.2307 31.2714 9.5 41 9.5C51.1708 9.5 60.8645 12.5596 67.5077 16.9885C68.5731 17.6987 70.4698 18.8754 71.925 19.7781L72.5431 20.1618C72.5528 22.8282 72.5573 31.4494 72.5406 41.494C72.5368 43.8226 72.5322 46.2628 72.5265 49.1064L72.5194 52.5099L72.5083 57.8961ZM54.5 36.5C59.4706 36.5 63.5 40.5294 63.5 45.5V63.5C63.5 68.4706 59.4706 72.5 54.5 72.5H27.5C22.5294 72.5 18.5 68.4706 18.5 63.5V45.5C18.5 40.5294 22.5294 36.5 27.5 36.5V27.5C27.5 20.0442 33.5442 14 41 14C48.4558 14 54.5 20.0442 54.5 27.5V36.5ZM45.5 27.5V36.5H36.5V27.5C36.5 25.0147 38.5147 23 41 23C43.4853 23 45.5 25.0147 45.5 27.5ZM27.5 63.5V45.5H54.5V63.5H27.5ZM36.5 54.5C36.5 56.9853 38.5147 59 41 59C43.4853 59 45.5 56.9853 45.5 54.5C45.5 52.0147 43.4853 50 41 50C38.5147 50 36.5 52.0147 36.5 54.5Z" fill="#343434"/>
</svg>
