<svg width="120" height="120" viewBox="0 0 120 120" fill="none" xmlns="http://www.w3.org/2000/svg">
<path fill-rule="evenodd" clip-rule="evenodd" d="M100 30H80V20.2941C80 14.6707 75.5888 10 70 10H20C14.4112 10 10 14.6707 10 20.2941V99.7059C10 105.329 14.4112 110 20 110H70C75.5888 110 80 105.329 80 99.7059V90H100C105.523 90 110 85.5229 110 80V40C110 34.4772 105.523 30 100 30ZM80 55H100V80H80V55ZM70 99.7059V20.2941C70 20.1944 69.987 20.1252 69.9783 20.0791C69.9674 20.0215 69.9634 20 70 20H20C20.0366 20 20.0326 20.0215 20.0217 20.0791L20.0217 20.0791C20.013 20.1252 20 20.1944 20 20.2941V99.7059C20 99.8056 20.013 99.8748 20.0217 99.9209C20.0326 99.9785 20.0366 100 20 100H70C69.9634 100 69.9674 99.9785 69.9783 99.9209C69.987 99.8748 70 99.8056 70 99.7059ZM25 85V95H35V85H25ZM40 95V85H50V95H40ZM55 85V95H65V85H55ZM25 80V70H35V80H25ZM40 70V80H50V70H40ZM55 80V70H65V80H55ZM65 65V25H25V65H65ZM35 35V55H55V35H35ZM100 40V45H80V40H100Z" fill="black"/>
</svg>
