<svg width="114" height="114" viewBox="0 0 114 114" fill="none" xmlns="http://www.w3.org/2000/svg">
<path fill-rule="evenodd" clip-rule="evenodd" d="M33.25 9.5H80.75C85.9967 9.5 90.25 13.7533 90.25 19V95C90.25 100.247 85.9967 104.5 80.75 104.5H33.25C28.0033 104.5 23.75 100.247 23.75 95V19C23.75 13.7533 28.0033 9.5 33.25 9.5ZM33.25 19V95H80.75V19H33.25ZM61.75 85.5C61.75 88.1234 59.6234 90.25 57 90.25C54.3766 90.25 52.25 88.1234 52.25 85.5C52.25 82.8766 54.3766 80.75 57 80.75C59.6234 80.75 61.75 82.8766 61.75 85.5Z" fill="black"/>
</svg>
