<svg width="120" height="120" viewBox="0 0 120 120" fill="none" xmlns="http://www.w3.org/2000/svg">
<path fill-rule="evenodd" clip-rule="evenodd" d="M20 35H30V10H90V35H100C105.523 35 110 39.4772 110 45V85C110 90.5229 105.523 95 100 95H90V110H30V95H20C14.4772 95 10 90.5229 10 85V45C10 39.4772 14.4772 35 20 35ZM80 35H40V20H80V35ZM100 45V85H90V75H30V85H20V45H100ZM80 85H40V100H80V85ZM95 55C95 52.2386 92.7614 50 90 50C87.2386 50 85 52.2386 85 55C85 57.7614 87.2386 60 90 60C92.7614 60 95 57.7614 95 55Z" fill="black"/>
</svg>
